<?xml version="1.0" encoding="UTF-8"?>
<svg version="1.1" xmlns="http://www.w3.org/2000/svg" viewBox="0 0 200 200">
<path d="M0 0 C7.59105486 5.91578758 11.54748377 15.95475169 15.44702148 24.5168457 C18.29103778 30.53209227 22.21087077 33.34767764 27.8125 36.8125 C35.26144377 41.74959064 40.20068476 48.28986158 42.96484375 56.8203125 C44.87047832 66.94739906 43.73704182 76.95380022 38.25 85.6875 C32.294228 93.35000069 23.38682885 97.07498675 13.9765625 98.31640625 C5.2137635 98.75596413 -3.43989156 95.87046104 -11.0625 91.6875 C-15.18485999 89.73480316 -16.30593554 89.92552686 -20.625 91 C-22.84054642 91.9362213 -25.02859998 92.93966658 -27.1875 94 C-36.762651 98.69171121 -45.99122023 99.48472752 -56.17578125 96.03125 C-64.26074641 92.62705414 -69.63490945 87.84935845 -73.625 80 C-77.33223604 70.76375901 -76.9536973 59.69676848 -73.0703125 50.55859375 C-69.09495366 43.52113418 -63.87934013 38.54783048 -56.9375 34.5 C-51.05452562 30.97348824 -48.56644883 27.08888147 -45.625 21 C-44.74108502 19.1984025 -43.85699019 17.396887 -42.96777344 15.59790039 C-42.10613743 13.83907543 -41.26917474 12.06822654 -40.43359375 10.296875 C-37.57647806 5.08865547 -34.44266083 0.98518363 -29.0625 -1.8125 C-28.31871094 -2.21082031 -27.57492188 -2.60914062 -26.80859375 -3.01953125 C-17.77478016 -7.075859 -8.19790604 -5.0434545 0 0 Z " transform="translate(116.625,83)"/>
<path d="M0 0 C6.96920879 3.98831948 11.42365659 9.63747359 13.75 17.3125 C15.22139978 27.71776593 14.35355235 36.87436367 8.171875 45.51953125 C3.87121342 50.89535822 -0.05690016 53.80284146 -7.078125 54.65625 C-14.16377108 55.01231262 -18.89322401 54.04639506 -24.25 49.3125 C-30.48192617 43.3742248 -32.92162707 36.07390743 -33.5 27.6875 C-33.32395973 19.18955629 -30.86596796 11.7509877 -25.33203125 5.26171875 C-18.11125436 -1.49844573 -9.18325599 -4.1960945 0 0 Z " transform="translate(176.25,68.6875)"/>
<path d="M0 0 C7.76344849 4.71950646 11.36900857 11.31075774 13.921875 19.8203125 C14.8651749 29.25331149 13.94704828 37.67247627 8.484375 45.6953125 C4.49058738 50.51910488 0.52900018 52.79170439 -5.65625 53.765625 C-13.41269798 54.22305655 -18.95110738 52.43394527 -24.828125 47.3203125 C-30.73605244 40.4440733 -33.215671 33.50979709 -33.140625 24.4453125 C-33.13498535 23.73640869 -33.1293457 23.02750488 -33.12353516 22.29711914 C-32.93985857 14.3962982 -31.04222874 8.72300639 -25.625 2.86328125 C-17.81573887 -3.84249733 -8.99966523 -4.43776596 0 0 Z " transform="translate(42.828125,69.6796875)"/>
<path d="M0 0 C7.50299749 4.22513486 11.16018241 11.05071343 13.53515625 19.078125 C15.24406957 27.41310788 13.8502395 35.93727354 9.6953125 43.328125 C6.3742825 48.15131026 2.55258061 52.12374469 -3.05078125 54.09765625 C-9.39217461 54.98450953 -16.06925236 55.3221692 -21.49609375 51.48828125 C-28.30521332 45.39771199 -32.53787863 39.82293178 -33.36328125 30.609375 C-33.67995365 20.76284269 -32.36391247 13.14549525 -26.36328125 5.22265625 C-19.27036008 -2.33478872 -9.43595676 -3.98571848 0 0 Z " transform="translate(139.05078125,20.90234375)"/>
<path d="M0 0 C3.76972951 2.60786983 6.08010219 5.65939921 8.33203125 9.61328125 C8.67105469 10.1959375 9.01007813 10.77859375 9.359375 11.37890625 C13.09798254 19.30406509 12.64615275 30.00418444 9.76953125 38.11328125 C6.99542814 44.00457442 2.85368389 47.79534563 -2.35546875 51.55078125 C-8.7439042 53.59990206 -15.82923846 53.82306092 -22.04296875 51.05078125 C-28.49422067 47.24172606 -32.24708977 41.62108883 -34.66796875 34.61328125 C-36.94973864 24.8639008 -35.64157414 16.13569126 -30.91796875 7.36328125 C-22.41125878 -3.03380871 -12.25408849 -6.68233704 0 0 Z " transform="translate(82.66796875,22.38671875)"/>
</svg>
